# AST/ASF file generated using VICON BodyLanguage
# -----------------------------------------------
:version 1.10
:name VICON
:units
  mass 1.0
  length 0.45
  angle deg
:documentation
   .ast/.asf automatically generated from VICON data using
   VICON BodyBuilder and BodyLanguage model FoxedUp or BRILLIANT.MOD
:root
   order TX TY TZ RX RY RZ
   axis XYZ
   position 0 0 0  
   orientation 0 0 0 
:bonedata
  begin
     id 1 
     name lhipjoint
     direction 0.677091 -0.635792 0.370561 
     length 2.74323 
     axis 0 0 0  XYZ
  end
  begin
     id 2 
     name lfemur
     direction 0.34202 -0.939693 0  
     length 7.44995  
     axis 0 0 20  XYZ
    dof rx ry rz
    limits (-160.0 20.0)
           (-70.0 70.0)
           (-60.0 70.0)
  end
  begin
     id 3 
     name ltibia
     direction 0.34202 -0.939693 0   
     length 7.34467   
     axis 0 0 20   XYZ
    dof rx
    limits (-10.0 170.0)
  end
  begin
     id 4 
     name lfoot
     direction 0.101953 -0.280114 0.954537   
     length 1.72105   
     axis -90 7.62852e-016 20   XYZ
    dof rx rz
    limits (-45.0 90.0)
           (-70.0 20.0)
  end
  begin
     id 5 
     name ltoes
     direction 1.53537e-011 -4.21915e-011 1   
     length 0.865872   
     axis -90 7.62852e-016 20   XYZ
    dof rx
    limits (-90.0 20.0)
  end
  begin
     id 6 
     name rhipjoint
     direction -0.695735 -0.620586 0.361699   
     length 2.81045  
     axis 0 0 0  XYZ 
  end
  begin
     id 7 
     name rfemur
     direction -0.34202 -0.939693 0   
     length 7.29387   
     axis 0 0 -20   XYZ
    dof rx ry rz
    limits (-160.0 20.0)
           (-70.0 70.0)
           (-70.0 60.0)
  end
  begin
     id 8 
     name rtibia
     direction -0.34202 -0.939693 0   
     length 7.44935   
     axis 0 0 -20   XYZ
    dof rx
    limits (-10.0 170.0)
 end
 begin
     id 9 
     name rfoot
     direction -0.104163 -0.286184 0.952496   
     length 1.77731  
     axis -90 -7.62852e-016 -20   XYZ
    dof rx rz
    limits (-45.0 90.0)
           (-20.0 70.0)
  end
  begin
     id 10 
     name rtoes
     direction -1.5355e-011 -4.21888e-011 1   
     length 0.892424   
     axis -90 -7.62852e-016 -20   XYZ
    dof rx
    limits (-90.0 20.0)
  end
  begin
     id 11 
     name lowerback
     direction 0.0100202 0.997226 -0.0737589   
     length 2.16892   
     axis 0 0 0   XYZ
    dof rx ry rz
    limits (-20.0 45.0)
           (-30.0 30.0)
           (-30.0 30.0)
  end
  begin
     id 12 
     name upperback
     direction 0.00432398 0.999988 -0.00215019   
     length 2.17326   
     axis 0 0 0   XYZ
    dof rx ry rz
    limits (-20.0 45.0)
           (-30.0 30.0)
           (-30.0 30.0)
  end
  begin
     id 13 
     name thorax
     direction -0.00195047 0.999485 0.0320434   
     length 2.18139   
     axis 0 0 0   XYZ
    dof rx ry rz
    limits (-20.0 45.0)
           (-30.0 30.0)
           (-30.0 30.0)
  end
  begin
     id 14 
     name lowerneck
     direction 0.00782762 0.986241 0.165128   
     length 1.88415   
     axis 0 0 0   XYZ
    dof rx ry rz
    limits (-20.0 45.0)
           (-30.0 30.0)
           (-30.0 30.0)
  end
  begin
     id 15 
     name upperneck
     direction 0.00988667 0.981098 -0.193258   
     length 1.9242   
     axis 0 0 0   XYZ
    dof rx ry rz
    limits (-20.0 45.0)
           (-30.0 30.0)
           (-30.0 30.0)
  end
  begin
     id 16
     name head
     direction 0.00252199 0.996513 -0.0833958  
     length 1.93887  
     axis 0 0 0   XYZ
    dof rx ry rz
    limits (-20.0 45.0)
           (-30.0 30.0)
           (-30.0 30.0)
  end
  begin
     id 17 
     name lclavicle
     direction 0.929492 0.368193 -0.0218667  
     length 3.5955  
     axis 0 0 0   XYZ
    dof ry rz
    limits (-20.0 10.0)
           (0.0 20.0)
  end
  begin
     id 18 
     name lhumerus
     direction 1 -4.48972e-011 1.41911e-027   
     length 5.2795   
     axis 180 -30 -90   XYZ
    dof rx ry rz
    limits (-60.0 90.0)
           (-90.0 90.0)
           (-90.0 90.0)
  end
  begin
     id 19
     name lradius
     direction 1 -4.48963e-011 7.05772e-027   
     length 3.53504   
     axis 180 -30 -90   XYZ
    dof rx
    limits (-10.0 170.0)
  end
  begin
     id 20
     name lwrist
     direction 1 -4.48957e-011 9.54866e-027   
     length 1.76752   
     axis -7.69462e-015 90 90   XYZ
    dof ry
    limits (-180.0 0.0)
 end
  begin
     id 21 
     name lhand
     direction 1 -4.48979e-011 1.90973e-026   
     length 0.667948   
     axis -1.21857e-014 90 90   XYZ
    dof rx rz
    limits (-90.0 90.0)
           (-45.0 45.0)
  end
  begin
     id 22 
     name lfingers
     direction 1 -4.48987e-011 3.81946e-026   
     length 0.538517   
     axis -2.43714e-014 90 90   XYZ
    dof rx
    limits (0.0 90.0)
  end
  begin
     id 23
     name lthumb
     direction 0.707107 -6.34962e-011 0.707107   
     length 0.773206   
     axis -90 45 2.85299e-015   XYZ
    dof rx rz
    limits (-45.0 45.0)
           (-45.0 45.0)
  end
  begin
     id 24 
     name rclavicle
     direction -0.898763 0.414256 -0.143584   
     length 3.5176  
     axis 0 0 0   XYZ 
    dof ry rz
    limits (-10.0 20.0)
           (-20.0 0.0)
  end
  begin
     id 25 
     name rhumerus
     direction -1 -4.48971e-011 1.129e-027  
     length 5.25035   
     axis 180 30 90   XYZ
    dof rx ry rz
    limits (-90.0 60.0)
           (-90.0 90.0)
           (-90.0 90.0)
  end
  begin
     id 26 
     name rradius
     direction -1 -4.48955e-011 6.34664e-027   
     length 3.58884   
     axis 180 30 90   XYZ
    dof rx
    limits (-10.0 170.0)
  end
  begin
     id 27 
     name rwrist
     direction -1 -4.48966e-011 9.54866e-027   
     length 1.79442   
     axis -7.69462e-015 -90 -90   XYZ
    dof ry
    limits (-180.0 0.0)
  end
  begin
     id 28
     name rhand
     direction -1 -4.48973e-011 1.90973e-026   
     length 0.779235   
     axis -1.21857e-014 -90 -90   XYZ
    dof rx rz
    limits (-90.0 90.0)
           (-45.0 45.0)
  end
  begin
     id 29
     name rfingers
     direction -1 -4.48984e-011 3.81946e-026   
     length 0.62824   
     axis -2.43714e-014 -90 -90   XYZ
    dof rx
    limits (0.0 90.0)
  end
  begin
     id 30
     name rthumb
     direction -0.707107 -6.34968e-011 0.707107   
     length 0.90203   
     axis -90 -45 -2.85299e-015   XYZ
    dof rx rz
    limits (-45.0 45.0)
           (-45.0 45.0)
  end
:hierarchy
  begin
    root lhipjoint rhipjoint lowerback
    lhipjoint lfemur
    lfemur ltibia
    ltibia lfoot
    lfoot ltoes
    rhipjoint rfemur
    rfemur rtibia
    rtibia rfoot
    rfoot rtoes
    lowerback upperback
    upperback thorax
    thorax lowerneck lclavicle rclavicle
    lowerneck upperneck
    upperneck head
    lclavicle lhumerus
    lhumerus lradius
    lradius lwrist
    lwrist lhand lthumb
    lhand lfingers
    rclavicle rhumerus
    rhumerus rradius
    rradius rwrist
    rwrist rhand rthumb
    rhand rfingers
  end

#!OML:ASF I:\Random Stuff\random\construction\7_22_03\Session 2\subj1.ASF
:FULLY-SPECIFIED
:DEGREES
120
root 5.60814 17.605 -10.2123 7.59103 -29.5126 -2.28799
lowerback 8.34079 -0.85545 5.3742
upperback 0.123287 -0.523756 2.42468
thorax -4.58368 -0.358234 -0.431359
lowerneck -16.9441 -1.3418 -0.0662654
upperneck 41.6634 -7.76832 10.4258
head 19.5674 -1.86032 3.43457
rclavicle -5.00937e-014 -5.1684e-014
rhumerus -42.1536 4.95941 -83.4553
rradius 87.9632
rwrist 23.0105
rhand -30.6519 9.90018
rfingers 7.12502
rthumb -3.94696 -20.043
lclavicle -5.00937e-014 -5.1684e-014
lhumerus -14.5126 -28.4759 93.4607
lradius 72.3345
lwrist 9.21009
lhand -27.4758 60.2176
lfingers 7.12502
lthumb -0.879662 629.804
rfemur -3.5125 9.50786 23.9044
rtibia 6.7009
rfoot -7.47668 -6.62327
rtoes -27.5289
lfemur -26.9646 -2.86473 -11.6233
ltibia 29.1562
lfoot -13.9584 2.12163
ltoes -28.5317
121
root 5.62516 17.6068 -10.1305 7.92205 -30.3861 -2.52053
lowerback 8.37044 -0.904119 5.27225
upperback 0.149415 -0.603838 2.27226
thorax -4.57706 -0.396417 -0.52325
lowerneck -17.3271 -0.941816 -0.0338641
upperneck 42.0648 -7.18506 10.3123
head 19.8673 -1.63251 3.52675
rclavicle 3.58806e-014 -2.94201e-014
rhumerus -41.7078 5.40776 -83.6706
rradius 87.6287
rwrist 22.2763
rhand -30.697 10.2198
rfingers 7.12502
rthumb -3.99052 -19.7225
lclavicle 3.58806e-014 -2.94201e-014
lhumerus -13.219 -28.5063 92.9457
lradius 71.7675
lwrist 8.21186
lhand -27.9008 60.5131
lfingers 7.12502
lthumb -1.29006 629.511
rfemur -3.05169 9.33872 23.8359
rtibia 5.55701
rfoot -7.4381 -5.52605
rtoes -27.7186
lfemur -27.5232 -3.00795 -11.5333
ltibia 28.2882
lfoot -13.6766 1.33598
ltoes -30.8785
122
root 5.64635 17.6038 -10.0434 8.31381 -31.2832 -2.85496
lowerback 8.4215 -0.959364 5.22019
upperback 0.144353 -0.68341 2.1539
thorax -4.6156 -0.436447 -0.606717
lowerneck -17.3309 -0.722296 -0.369303
upperneck 41.983 -6.84614 10.6353
head 19.8137 -1.52435 3.81705
rclavicle -1.8487e-014 -1.51076e-014
rhumerus -41.2189 5.80232 -83.7107
rradius 87.3093
rwrist 21.368
rhand -30.2743 10.9434
rfingers 7.12502
rthumb -3.58239 -19.0062
lclavicle -1.8487e-014 -1.51076e-014
lhumerus -11.8868 -28.4206 92.506
lradius 71.0487
lwrist 7.38904
lhand -27.9405 60.6915
lfingers 7.12502
lthumb -1.32847 629.333
rfemur -2.70057 9.20652 23.8376
rtibia 4.65276
rfoot -7.53994 -4.49223
rtoes -28.2057
lfemur -27.9888 -3.47369 -11.291
ltibia 27.4756
lfoot -13.3034 1.05641
ltoes -33.3444
123
root 5.67167 17.6015 -9.94777 8.72816 -32.2297 -3.17789
lowerback 8.40914 -0.963265 5.1873
upperback 0.129431 -0.69918 1.98287
thorax -4.62663 -0.445431 -0.764497
lowerneck -17.52 -0.461315 -0.0151424
upperneck 42.2017 -6.39329 10.1429
head 19.9067 -1.35195 3.61099
rclavicle -8.12035e-014 3.77691e-014
rhumerus -40.9209 5.67075 -83.7221
rradius 87.3054
rwrist 20.8027
rhand -29.8754 11.769
rfingers 7.12502
rthumb -3.19717 -18.1868
lclavicle -8.12035e-014 3.77691e-014
lhumerus -10.556 -28.4341 91.9906
lradius 70.2288
lwrist 6.78824
lhand -27.8314 60.4302
lfingers 7.12502
lthumb -1.22312 629.594
rfemur -2.28304 9.12261 23.7581
rtibia 3.68723
rfoot -7.76988 -3.36241
rtoes -27.7201
lfemur -28.4118 -4.15934 -11.0147
ltibia 26.8158
lfoot -12.7747 1.16568
ltoes -35.4991
124
root 5.69764 17.6044 -9.84414 9.13904 -33.2807 -3.47927
lowerback 8.32362 -0.953996 5.12138
upperback 0.135674 -0.707838 1.78543
thorax -4.57388 -0.44889 -0.93351
lowerneck -17.6887 -0.195025 0.285137
upperneck 42.3535 -5.93419 9.72754
head 19.9636 -1.17868 3.45013
rclavicle 6.95746e-016 5.1684e-015
rhumerus -40.6293 6.50875 -83.8348
rradius 86.8933
rwrist 19.7555
rhand -30.4323 12.1973
rfingers 7.12502
rthumb -3.73495 -17.7497
lclavicle 6.95746e-016 5.1684e-015
lhumerus -9.31977 -28.3736 91.3821
lradius 69.4189
lwrist 6.52329
lhand -27.3548 60.2441
lfingers 7.12502
lthumb -0.762771 629.777
rfemur -1.9534 9.13626 23.5737
rtibia 2.92491
rfoot -8.1945 -2.13559
rtoes -25.469
lfemur -28.6875 -4.58352 -10.8561
ltibia 26.4119
lfoot -12.0488 1.20515
ltoes -38.0955
125
root 5.72219 17.6055 -9.7345 9.56822 -34.4555 -3.85343
lowerback 8.21814 -0.925833 5.0198
upperback 0.174451 -0.696265 1.61477
thorax -4.47396 -0.440046 -1.0577
lowerneck -17.9259 0.128962 0.242005
upperneck 42.4855 -5.4095 9.67533
head 20.0626 -0.990141 3.55436
rclavicle 2.10215e-014 3.1408e-014
rhumerus -40.376 6.82947 -83.9375
rradius 86.6773
rwrist 19.1216
rhand -30.7204 12.9874
rfingers 7.12502
rthumb -4.01318 -16.9545
lclavicle 2.10215e-014 3.1408e-014
lhumerus -8.00117 -28.1743 90.795
lradius 68.4336
lwrist 6.53512
lhand -26.5099 60.528
lfingers 7.12502
lthumb 0.0533044 629.492
rfemur -1.19611 9.28894 23.4302
rtibia 1.29924
rfoot -8.02312 -0.960948
rtoes -24.919
lfemur -28.7669 -5.00467 -10.5803
ltibia 26.3591
lfoot -11.2551 1.13446
ltoes -38.8539
126
root 5.74989 17.5851 -9.61898 10.0666 -35.6484 -4.30171
lowerback 8.06901 -0.872874 4.95336
upperback 0.218569 -0.650754 1.45034
thorax -4.34239 -0.414434 -1.19946
lowerneck -18.1054 0.399436 0.38309
upperneck 42.472 -4.93413 9.4444
head 20.0351 -0.814179 3.50901
rclavicle -9.74045e-015 1.07344e-014
rhumerus -40.13 7.18401 -84.0402
rradius 86.3755
rwrist 18.623
rhand -31.2691 13.7665
rfingers 7.12502
rthumb -4.54296 -16.1648
lclavicle -9.74045e-015 1.07344e-014
lhumerus -6.58544 -27.7661 90.3217
lradius 67.1485
lwrist 6.22807
lhand -26.2431 61.3033
lfingers 7.12502
lthumb 0.310955 628.717
rfemur -0.628723 9.47491 23.3695
rtibia -2.38542e-015
rfoot -7.89388 -0.0778852
rtoes -27.017
lfemur -28.64 -4.97294 -10.4379
ltibia 26.6038
lfoot -9.98861 0.240891
ltoes -37.4901
